<svg version="1.1" preserveAspectRatio="none" xmlns="http://www.w3.org/2000/svg" width="500" height="500" viewBox="0 0 500 500"><rect width="100%" height="100%" fill="#3B3D30" fill-opacity="1"/><svg viewBox="946.6177 613.8211 367.1329 350" width="333" height="317.459971579774" x="83.5px" y="91.27px" xmlns="http://www.w3.org/2000/svg" xmlns:xlink="http://www.w3.org/1999/xlink" preserveAspectRatio="none"><defs></defs><style>.aIptOCySncolors-3 {fill:#1F2211;fill-opacity:1;}.aIptOCySncolors-4 {fill:#34391D;fill-opacity:1;}.aIptOCySncolors-5 {fill:#AA7373;fill-opacity:1;}.aIptOCySncolors-6 {fill:#D7A489;fill-opacity:1;}.aIptOCySncolors-7 {fill:#F7E3DF;fill-opacity:1;}.companyName {fill:#E5BDB5;fill-opacity:1;}.icon1 {fill:#A69B75;fill-opacity:1;}.icon2 {fill:#E5BDB5;fill-opacity:1;}.icon3 {fill:#717751;fill-opacity:1;}.icon3-str {stroke:#717751;stroke-opacity:1;}</style><g opacity="1" transform="rotate(0 1009.6537 613.8211)">
<svg width="241.0609" height="200" x="1009.6537" y="613.8211" version="1.1" preserveAspectRatio="none" viewBox="1.3902997970581055 9.668212890625 97.21959686279297 80.6597900390625">
  <g transform="matrix(1 0 0 1 0 0)" class="icon1"><g><path d="m71.145 90.328h-55.035c-3.9375 0-7.1406-3.2031-7.1406-7.1406 0-0.83984 0.67969-1.5195 1.5195-1.5195 0.83984 0 1.5195 0.67969 1.5195 1.5195 0 2.2617 1.8398 4.1055 4.1055 4.1055h55.039c2.2734 0 4.4805-0.44531 6.5586-1.3242 2.0078-0.84766 3.8086-2.0625 5.3555-3.6094s2.7617-3.3477 3.6094-5.3555c0.87891-2.0781 1.3242-4.2852 1.3242-6.5586 0-2.2734-0.44531-4.4805-1.3242-6.5586-0.84766-2.0078-2.0625-3.8086-3.6094-5.3555s-3.3477-2.7617-5.3555-3.6094c-2.0781-0.87891-4.2891-1.3242-6.5586-1.3242l-35.156-0.007812c-2.2773 0-4.4297-0.88281-6.0586-2.4844-1.625-1.5977-2.543-3.7305-2.582-6.0039-0.042969-2.3164 0.83594-4.5117 2.4727-6.1758 1.6602-1.6914 3.8828-2.6211 6.25-2.6211h47.812c1.0977 0 2.1289-0.42578 2.9023-1.2031 0.77344-0.77344 1.2031-1.8047 1.2031-2.9023 0-0.83984 0.67969-1.5195 1.5195-1.5195s1.5195 0.67969 1.5195 1.5195c0 1.9062-0.74219 3.6992-2.0898 5.0508-1.3477 1.3477-3.1406 2.0898-5.0508 2.0898l-47.812 0.003906c-1.5469 0-3 0.60938-4.0859 1.7109-1.0586 1.0781-1.6289 2.4961-1.6016 3.9922 0.054688 3.0352 2.5664 5.5039 5.6016 5.5039h35.148c2.6836 0 5.2891 0.52734 7.7422 1.5664 2.3672 1 4.4961 2.4336 6.3203 4.2578s3.2578 3.9492 4.2578 6.3203c1.0391 2.457 1.5664 5.0625 1.5664 7.7422 0 2.6836-0.52734 5.2852-1.5664 7.7422-1 2.3672-2.4336 4.4961-4.2578 6.3203s-3.9492 3.2578-6.3203 4.2578c-2.4531 1.043-5.0586 1.5703-7.7422 1.5703z"></path><path d="m15.012 79.188c-0.71094 0-1.3438-0.5-1.4883-1.2227-0.16406-0.82422 0.37109-1.6211 1.1953-1.7852 0.45312-0.089844 0.92188-0.13672 1.3867-0.13672h54.953c1.5508 0 3-0.60938 4.0859-1.7148 1.0586-1.0781 1.6289-2.4961 1.6016-3.9922-0.054688-3.0352-2.5664-5.5039-5.6016-5.5039l-35.148 0.003907c-2.6836 0-5.2891-0.52734-7.7422-1.5664-2.3672-1-4.4961-2.4336-6.3203-4.2578-1.8242-1.8242-3.2578-3.9492-4.2578-6.3203-1.0391-2.457-1.5664-5.0625-1.5664-7.7422 0-2.6836 0.52734-5.2852 1.5664-7.7422 1-2.3672 2.4336-4.4961 4.2578-6.3203 1.8242-1.8242 3.9492-3.2578 6.3203-4.2578 2.457-1.0391 5.0625-1.5664 7.7422-1.5664h47.895c0.46875 0 0.93359 0.046875 1.3867 0.13672 0.82422 0.16406 1.3594 0.96094 1.1953 1.7852-0.16406 0.82422-0.96094 1.3594-1.7852 1.1953-0.26172-0.050782-0.52734-0.078126-0.79688-0.078126l-47.895-0.003906c-2.2734 0-4.4805 0.44531-6.5586 1.3242-2.0078 0.84766-3.8086 2.0625-5.3555 3.6094s-2.7617 3.3477-3.6094 5.3555c-0.87891 2.0781-1.3242 4.2852-1.3242 6.5586 0 2.2734 0.44531 4.4805 1.3242 6.5586 0.84766 2.0078 2.0625 3.8086 3.6094 5.3555s3.3477 2.7617 5.3555 3.6094c2.0781 0.87891 4.2852 1.3242 6.5586 1.3242h35.148c2.2773 0 4.4297 0.88281 6.0586 2.4844 1.625 1.5977 2.543 3.7305 2.582 6.0039 0.042969 2.3164-0.83594 4.5117-2.4727 6.1758-1.6602 1.6914-3.8828 2.6211-6.2539 2.6211l-54.949 0.003906c-0.26953 0-0.53906 0.027344-0.79688 0.078125-0.10156 0.019532-0.20312 0.027344-0.30078 0.027344z"></path><path d="m89.516 33.719c-0.38281 0-0.76562-0.14453-1.0625-0.43359-0.082031-0.078125-2.0078-1.9688-3.9531-4.6445-2.7031-3.7188-4.0781-7.043-4.0781-9.8789 0-5.0117 4.0781-9.0938 9.0938-9.0938 5.0117 0.003906 9.0938 4.082 9.0938 9.0977 0 2.8359-1.3711 6.1602-4.0781 9.8789-1.9453 2.6758-3.875 4.5664-3.9531 4.6445-0.29688 0.28906-0.67969 0.42969-1.0625 0.42969zm0-21.008c-3.3398 0-6.0547 2.7148-6.0547 6.0547 0 3.7695 3.7266 8.6719 6.0547 11.238 2.3281-2.5664 6.0547-7.4727 6.0547-11.238 0-3.3398-2.7148-6.0547-6.0547-6.0547z"></path><path d="m89.516 23.129c-2.4062 0-4.3633-1.957-4.3633-4.3633s1.957-4.3633 4.3633-4.3633 4.3633 1.957 4.3633 4.3633-1.957 4.3633-4.3633 4.3633zm0-5.6914c-0.73047 0-1.3281 0.59375-1.3281 1.3281 0 0.73047 0.59375 1.3281 1.3281 1.3281 0.73047 0 1.3281-0.59375 1.3281-1.3281s-0.59766-1.3281-1.3281-1.3281z"></path><path d="m10.484 84.703c-0.38281 0-0.76562-0.14453-1.0625-0.43359-0.082031-0.078125-2.0078-1.9688-3.9531-4.6445-2.7031-3.7148-4.0781-7.0391-4.0781-9.875 0-5.0117 4.0781-9.0938 9.0938-9.0938 5.0117 0 9.0938 4.0781 9.0938 9.0938 0 2.8359-1.3711 6.1602-4.0781 9.8789-1.9453 2.6758-3.875 4.5664-3.9531 4.6445-0.29688 0.28906-0.67969 0.42969-1.0625 0.42969zm0-21.008c-3.3398 0-6.0547 2.7148-6.0547 6.0547 0 3.7695 3.7266 8.6719 6.0547 11.238 2.3281-2.5664 6.0547-7.4727 6.0547-11.238 0-3.3398-2.7148-6.0547-6.0547-6.0547z"></path><path d="m10.484 74.113c-2.4062 0-4.3633-1.957-4.3633-4.3633s1.957-4.3633 4.3633-4.3633 4.3633 1.957 4.3633 4.3633c0.003906 2.4062-1.957 4.3633-4.3633 4.3633zm0-5.6914c-0.73047 0-1.3281 0.59375-1.3281 1.3281 0 0.73047 0.59375 1.3281 1.3281 1.3281 0.73047 0 1.3281-0.59375 1.3281-1.3281s-0.59766-1.3281-1.3281-1.3281z"></path><path d="m65.762 84.703h-5.1914c-0.83984 0-1.5195-0.67969-1.5195-1.5195s0.67969-1.5195 1.5195-1.5195h5.1914c0.83984 0 1.5195 0.67969 1.5195 1.5195s-0.67969 1.5195-1.5195 1.5195zm-13.547 0h-5.1914c-0.83984 0-1.5195-0.67969-1.5195-1.5195s0.67969-1.5195 1.5195-1.5195h5.1914c0.83984 0 1.5195 0.67969 1.5195 1.5195s-0.67969 1.5195-1.5195 1.5195zm-13.543 0h-5.1914c-0.83984 0-1.5195-0.67969-1.5195-1.5195s0.67969-1.5195 1.5195-1.5195h5.1914c0.83984 0 1.5195 0.67969 1.5195 1.5195s-0.67969 1.5195-1.5195 1.5195zm-13.543 0h-5.1914c-0.83984 0-1.5195-0.67969-1.5195-1.5195s0.67969-1.5195 1.5195-1.5195h5.1914c0.83984 0 1.5195 0.67969 1.5195 1.5195s-0.67969 1.5195-1.5195 1.5195zm48.957-0.35547c-0.68359 0-1.3086-0.46875-1.4766-1.1641-0.19531-0.81641 0.30469-1.6367 1.1211-1.832 0.60938-0.14844 1.2148-0.34766 1.7969-0.59766 0.82422-0.35156 1.6055-0.80078 2.3164-1.3359 0.67188-0.5 1.625-0.36328 2.125 0.30859 0.5 0.67188 0.36328 1.625-0.30859 2.125-0.90625 0.67578-1.8945 1.2461-2.9375 1.6914-0.73828 0.31641-1.5039 0.57031-2.2773 0.75781-0.12109 0.03125-0.24219 0.046875-0.35937 0.046875zm9.3359-8.9414c-0.13672 0-0.27344-0.019531-0.41406-0.058594-0.80859-0.22656-1.2773-1.0664-1.0508-1.875 0.27734-0.98047 0.41797-2 0.41797-3.0312v-0.20312c-0.007812-0.43359-0.039062-0.86719-0.097656-1.293-0.10938-0.83203 0.47266-1.5938 1.3047-1.707 0.83203-0.10938 1.5938 0.47266 1.707 1.3047 0.070313 0.53906 0.11328 1.0898 0.12109 1.6406 0 0.085937 0.003906 0.17188 0.003906 0.25781 0 1.3086-0.17969 2.6094-0.53125 3.8555-0.19141 0.67188-0.80078 1.1094-1.4609 1.1094zm-3.293-12.488c-0.38672 0-0.77344-0.14844-1.0703-0.44141l-0.042969-0.042968c-1.0898-1.0703-2.3555-1.8945-3.7539-2.4492-0.78125-0.30859-1.1641-1.1914-0.85547-1.9688 0.30859-0.78125 1.1875-1.1641 1.9688-0.85547 1.7852 0.70312 3.3906 1.75 4.7734 3.1094l0.050781 0.050781c0.59375 0.58984 0.59766 1.5508 0.007812 2.1484-0.29688 0.30078-0.6875 0.44922-1.0781 0.44922zm-12.555-3.707h-5.1914c-0.83984 0-1.5195-0.67969-1.5195-1.5195s0.67969-1.5195 1.5195-1.5195h5.1914c0.83984 0 1.5195 0.67969 1.5195 1.5195s-0.67969 1.5195-1.5195 1.5195zm-13.547 0h-5.1914c-0.83984 0-1.5195-0.67969-1.5195-1.5195s0.67969-1.5195 1.5195-1.5195h5.1914c0.83984 0 1.5195 0.67969 1.5195 1.5195s-0.67969 1.5195-1.5195 1.5195zm-13.543 0h-4.4883c-0.26172 0-0.52344-0.007813-0.78125-0.019532-0.83984-0.046875-1.4805-0.76172-1.4336-1.5977 0.046875-0.83984 0.76172-1.4805 1.5977-1.4336 0.20312 0.011719 0.41406 0.015625 0.62109 0.015625h4.4883c0.83984 0 1.5195 0.67969 1.5195 1.5195-0.003906 0.83594-0.68359 1.5156-1.5234 1.5156zm-12.801-3.082c-0.35156 0-0.70312-0.12109-0.99219-0.36719-0.26953-0.23047-0.53125-0.47656-0.78516-0.72656-1.125-1.125-2.0469-2.418-2.7383-3.8359-0.36719-0.75391-0.054688-1.6641 0.69922-2.0312 0.75391-0.36719 1.6641-0.054688 2.0312 0.69922 0.54297 1.1172 1.2695 2.1328 2.1562 3.0195 0.19922 0.19922 0.40625 0.39062 0.61719 0.57422 0.63672 0.54687 0.70703 1.5078 0.16016 2.1406-0.29688 0.35156-0.72266 0.52734-1.1484 0.52734zm-4.1758-12.219c-0.10156 0-0.20312-0.011718-0.30469-0.03125-0.82031-0.16797-1.3516-0.96875-1.1836-1.793 0.1875-0.91797 0.46875-1.8242 0.83594-2.6914 0.38672-0.91797 0.875-1.7969 1.4414-2.6094 0.48047-0.6875 1.4297-0.85547 2.1133-0.375 0.6875 0.48047 0.85547 1.4297 0.375 2.1133-0.44531 0.63672-0.82812 1.3281-1.1328 2.0508-0.28906 0.68359-0.51172 1.3945-0.65625 2.1172-0.14844 0.72266-0.78125 1.2188-1.4883 1.2188zm8.6406-9.5977c-0.64453 0-1.2422-0.41406-1.4492-1.0625-0.25391-0.80078 0.19141-1.6523 0.98828-1.9062 1.3867-0.4375 2.832-0.66016 4.3047-0.66016h1.2852c0.83984 0 1.5195 0.67969 1.5195 1.5195s-0.67969 1.5195-1.5195 1.5195h-1.2812c-1.1602 0-2.3008 0.17578-3.3867 0.51953-0.15625 0.046874-0.30859 0.070312-0.46094 0.070312zm13.484-0.59375c-0.83984 0-1.5195-0.67969-1.5195-1.5195 0-0.83984 0.67969-1.5195 1.5195-1.5195h5.1914c0.83984 0 1.5195 0.67969 1.5195 1.5195 0 0.83984-0.67969 1.5195-1.5195 1.5195zm13.543 0c-0.83984 0-1.5195-0.67969-1.5195-1.5195 0-0.83984 0.67969-1.5195 1.5195-1.5195h5.1914c0.83984 0 1.5195 0.67969 1.5195 1.5195 0 0.83984-0.67969 1.5195-1.5195 1.5195zm13.547 0c-0.83984 0-1.5195-0.67969-1.5195-1.5195 0-0.83984 0.67969-1.5195 1.5195-1.5195h5.1914c0.83984 0 1.5195 0.67969 1.5195 1.5195 0 0.83984-0.67969 1.5195-1.5195 1.5195z"></path></g></g>
</svg>
</g><g opacity="1" transform="rotate(0 946.6177 863.8211)">
<svg width="367.1329" height="100" x="946.6177" y="863.8211" version="1.1" preserveAspectRatio="none" viewBox="1.8 -28 105 28.6">
  <g transform="matrix(1 0 0 1 0 0)" class="companyName"><path id="id-D6z1nYkh7" d="M7.60-27L7.60-1L10-0.40L10 0L1.80 0L1.80-0.40L4.20-1L4.20-27L1.80-27.60L1.80-28L10-28L10-27.60L7.60-27Z M18.80-18.40L23.40-18.40L23.40-17.60L18.80-17.60L18.80-4.84Q18.80-2.40 19.68-1.30Q20.56-0.20 21.60-0.20L21.60-0.20Q22.96-0.20 23.90-1.22Q24.84-2.24 25-4.20L25-4.20L25.60-4.20Q25.44-1.92 24.22-0.66Q23 0.60 21.20 0.60L21.20 0.60Q18.64 0.60 17.12-0.90Q15.60-2.40 15.60-4.80L15.60-4.80L15.60-17.60L12.20-17.60L12.20-18.40L15.60-18.40L15.60-23L18.80-25.20L18.80-18.40Z M27.40-0.40L29.80-1L29.80-17.40L27.40-18L27.40-18.40L33-18.40L33-1L35.40-0.40L35.40 0L27.40 0L27.40-0.40ZM33.20-23L33.20-23Q33.20-22.24 32.58-21.62Q31.96-21 31.20-21L31.20-21Q30.44-21 29.82-21.62Q29.20-22.24 29.20-23L29.20-23Q29.20-23.76 29.82-24.38Q30.44-25 31.20-25L31.20-25Q31.96-25 32.58-24.38Q33.20-23.76 33.20-23Z M37.80-0.40L40.20-1L40.20-17.40L37.80-18L37.80-18.40L43.40-18.40L43.40-16Q43.80-16.80 44.48-17.48L44.48-17.48Q45.04-18.04 45.92-18.52Q46.80-19 48-19L48-19Q49.20-19 50.22-18.56Q51.24-18.12 52-17.34Q52.76-16.56 53.18-15.46Q53.60-14.36 53.60-13L53.60-13L53.60-1L56-0.40L56 0L48.20 0L48.20-0.40L50.40-1L50.40-13Q50.40-15.84 49.50-17.02Q48.60-18.20 47.40-18.20L47.40-18.20Q46.40-18.20 45.68-17.64Q44.96-17.08 44.44-16.40L44.44-16.40Q43.84-15.60 43.40-14.60L43.40-14.60L43.40-1L45.60-0.40L45.60 0L37.80 0L37.80-0.40Z M73.20-9.20L62.40-9.20Q62.40-6.64 62.78-4.92Q63.16-3.20 63.78-2.14Q64.40-1.08 65.18-0.64Q65.96-0.20 66.80-0.20L66.80-0.20Q67.84-0.20 68.76-0.60Q69.68-1 70.40-1.68Q71.12-2.36 71.58-3.32Q72.04-4.28 72.20-5.40L72.20-5.40L72.80-5.40Q72.64-4.12 72.10-3.02Q71.56-1.92 70.72-1.12Q69.88-0.32 68.78 0.14Q67.68 0.60 66.40 0.60L66.40 0.60Q64.88 0.60 63.52-0.06Q62.16-0.72 61.10-1.98Q60.04-3.24 59.42-5.06Q58.80-6.88 58.80-9.20L58.80-9.20Q58.80-11.60 59.40-13.44Q60-15.28 60.98-16.50Q61.96-17.72 63.26-18.36Q64.56-19 66-19L66-19Q67.44-19 68.74-18.36Q70.04-17.72 71.02-16.50Q72-15.28 72.60-13.44Q73.20-11.60 73.20-9.20L73.20-9.20ZM66-18.40L66-18.40Q65.40-18.40 64.80-18.02Q64.20-17.64 63.68-16.68Q63.16-15.72 62.82-14.10Q62.48-12.48 62.40-10L62.40-10L69.60-10Q69.52-12.48 69.18-14.10Q68.84-15.72 68.32-16.68Q67.80-17.64 67.20-18.02Q66.60-18.40 66-18.40Z M81.80-12.60L81.80-1L84.20-0.40L84.20 0L76.20 0L76.20-0.40L78.60-1L78.60-17.40L76.20-18L76.20-18.40L81.80-18.40L81.80-13.60Q82.32-15.08 83.04-16.28L83.04-16.28Q83.68-17.32 84.60-18.16Q85.52-19 86.80-19L86.80-19Q87.24-19 87.64-18.94Q88.04-18.88 88.36-18.80L88.36-18.80Q88.72-18.68 89-18.60L89-18.60L87.80-15.60Q87.56-15.72 87.28-15.88L87.28-15.88Q87.04-16 86.70-16.10Q86.36-16.20 86-16.20L86-16.20Q84.96-16.20 84.16-15.64Q83.36-15.08 82.84-14.40L82.84-14.40Q82.20-13.60 81.80-12.60L81.80-12.60Z M101.20-3.80L101.20-9.80Q97.72-9.80 96.06-8.26Q94.40-6.72 94.40-4L94.40-4Q94.40-2.20 95.28-1.20Q96.16-0.20 97.20-0.20L97.20-0.20Q98.16-0.20 98.90-0.76Q99.64-1.32 100.16-2L100.16-2Q100.76-2.76 101.20-3.80L101.20-3.80ZM98.20-18.40L98.20-18.40Q97-18.40 96.20-17.58Q95.40-16.76 95.40-15.40L95.40-15.40Q95.40-15.08 95.42-14.84Q95.44-14.60 95.48-14.40L95.48-14.40Q95.52-14.20 95.60-14L95.60-14L92.40-13.20Q92.32-13.32 92.28-13.52L92.28-13.52Q92.24-13.72 92.22-13.96Q92.20-14.20 92.20-14.60L92.20-14.60Q92.20-15.44 92.60-16.22Q93-17 93.78-17.62Q94.56-18.24 95.66-18.62Q96.76-19 98.20-19L98.20-19Q101.08-19 102.74-17.36Q104.40-15.72 104.40-13L104.40-13L104.40-1L106.80-0.40L106.80 0L101.20 0L101.20-2.40Q100.76-1.56 100.08-0.88L100.08-0.88Q99.52-0.32 98.66 0.14Q97.80 0.60 96.60 0.60L96.60 0.60Q93.72 0.60 92.26-0.76Q90.80-2.12 90.80-4.40L90.80-4.40Q90.80-5.52 91.42-6.64Q92.04-7.76 93.30-8.64Q94.56-9.52 96.52-10.06Q98.48-10.60 101.20-10.60L101.20-10.60L101.20-13Q101.20-16 100.30-17.20Q99.40-18.40 98.20-18.40Z"/></g>
</svg>
</g></svg></svg>